<svg width="22" height="23" viewBox="0 0 22 23" fill="none" xmlns="http://www.w3.org/2000/svg">
<path d="M11 3.15015C9.48122 3.15015 8.25 4.38136 8.25 5.90015V16.9001C8.25 18.4189 9.48122 19.6501 11 19.6501" stroke="#8692D0" stroke-width="1.5" stroke-linecap="round" stroke-linejoin="round"/>
<path d="M11 3.15015C9.48122 3.15015 8.25 4.38136 8.25 5.90015V16.9001C8.25 18.4189 9.48122 19.6501 11 19.6501" stroke="white" stroke-opacity="0.4" stroke-width="1.5" stroke-linecap="round" stroke-linejoin="round"/>
<path d="M5.5 3.15015C7.01878 3.15015 8.25 4.38136 8.25 5.90015V16.9001C8.25 18.4189 7.01878 19.6501 5.5 19.6501" stroke="#8692D0" stroke-width="1.5" stroke-linecap="round" stroke-linejoin="round"/>
<path d="M5.5 3.15015C7.01878 3.15015 8.25 4.38136 8.25 5.90015V16.9001C8.25 18.4189 7.01878 19.6501 5.5 19.6501" stroke="white" stroke-opacity="0.4" stroke-width="1.5" stroke-linecap="round" stroke-linejoin="round"/>
<path d="M11.9166 6.81689H18.3333C18.8396 6.81689 19.25 7.2273 19.25 7.73356V15.0669C19.25 15.5732 18.8396 15.9836 18.3333 15.9836H11.9166" stroke="#8692D0" stroke-width="1.5" stroke-linecap="round" stroke-linejoin="round"/>
<path d="M11.9166 6.81689H18.3333C18.8396 6.81689 19.25 7.2273 19.25 7.73356V15.0669C19.25 15.5732 18.8396 15.9836 18.3333 15.9836H11.9166" stroke="white" stroke-opacity="0.4" stroke-width="1.5" stroke-linecap="round" stroke-linejoin="round"/>
<path d="M4.58333 6.81689H3.66667C3.16041 6.81689 2.75 7.2273 2.75 7.73356V15.0669C2.75 15.5732 3.16041 15.9836 3.66667 15.9836H4.58333" stroke="#8692D0" stroke-width="1.5" stroke-linecap="round" stroke-linejoin="round"/>
<path d="M4.58333 6.81689H3.66667C3.16041 6.81689 2.75 7.2273 2.75 7.73356V15.0669C2.75 15.5732 3.16041 15.9836 3.66667 15.9836H4.58333" stroke="white" stroke-opacity="0.4" stroke-width="1.5" stroke-linecap="round" stroke-linejoin="round"/>
<path d="M15.5833 11.4002H15.5924" stroke="#8692D0" stroke-width="1.5" stroke-linecap="round" stroke-linejoin="round"/>
<path d="M15.5833 11.4002H15.5924" stroke="white" stroke-opacity="0.4" stroke-width="1.5" stroke-linecap="round" stroke-linejoin="round"/>
<path d="M11.9165 11.4002H11.9257" stroke="#8692D0" stroke-width="1.5" stroke-linecap="round" stroke-linejoin="round"/>
<path d="M11.9165 11.4002H11.9257" stroke="white" stroke-opacity="0.4" stroke-width="1.5" stroke-linecap="round" stroke-linejoin="round"/>
</svg>
