<svg width="22" height="23" viewBox="0 0 22 23" fill="none" xmlns="http://www.w3.org/2000/svg">
<rect x="3.66669" y="4.06689" width="5.5" height="5.5" rx="1" stroke="white" stroke-width="1.5" stroke-linecap="round" stroke-linejoin="round"/>
<rect x="12.8333" y="4.06689" width="5.5" height="5.5" rx="1" stroke="white" stroke-width="1.5" stroke-linecap="round" stroke-linejoin="round"/>
<rect x="3.66669" y="13.2334" width="5.5" height="5.5" rx="1" stroke="white" stroke-width="1.5" stroke-linecap="round" stroke-linejoin="round"/>
<path d="M12.8333 15.2334C12.4191 15.2334 12.0833 15.5692 12.0833 15.9834C12.0833 16.3976 12.4191 16.7334 12.8333 16.7334V15.2334ZM18.3333 16.7334C18.7475 16.7334 19.0833 16.3976 19.0833 15.9834C19.0833 15.5692 18.7475 15.2334 18.3333 15.2334V16.7334ZM16.3333 13.2334C16.3333 12.8192 15.9975 12.4834 15.5833 12.4834C15.1691 12.4834 14.8333 12.8192 14.8333 13.2334H16.3333ZM14.8333 18.7334C14.8333 19.1476 15.1691 19.4834 15.5833 19.4834C15.9975 19.4834 16.3333 19.1476 16.3333 18.7334H14.8333ZM12.8333 16.7334H18.3333V15.2334H12.8333V16.7334ZM14.8333 13.2334V18.7334H16.3333V13.2334H14.8333Z" fill="white"/>
</svg>
