<svg width="22" height="23" viewBox="0 0 22 23" fill="none" xmlns="http://www.w3.org/2000/svg">
<path d="M17.4167 8.38443L12.5281 4.58209C11.6455 3.89549 10.4095 3.89549 9.52693 4.58209L4.63743 8.38443C4.04197 8.8475 3.69383 9.55968 3.69418 10.314V16.914C3.69418 17.9265 4.51499 18.7473 5.52752 18.7473H16.5275C17.54 18.7473 18.3609 17.9265 18.3609 16.914V10.314C18.3609 9.55959 18.0125 8.84734 17.4167 8.38443" stroke="#8692D0" stroke-width="1.5" stroke-linecap="round" stroke-linejoin="round"/>
<path d="M17.4167 8.38443L12.5281 4.58209C11.6455 3.89549 10.4095 3.89549 9.52693 4.58209L4.63743 8.38443C4.04197 8.8475 3.69383 9.55968 3.69418 10.314V16.914C3.69418 17.9265 4.51499 18.7473 5.52752 18.7473H16.5275C17.54 18.7473 18.3609 17.9265 18.3609 16.914V10.314C18.3609 9.55959 18.0125 8.84734 17.4167 8.38443" stroke="white" stroke-opacity="0.4" stroke-width="1.5" stroke-linecap="round" stroke-linejoin="round"/>
<path d="M14.6667 14.15C12.6408 15.3719 9.35734 15.3719 7.33334 14.15" stroke="#8692D0" stroke-width="1.5" stroke-linecap="round" stroke-linejoin="round"/>
<path d="M14.6667 14.15C12.6408 15.3719 9.35734 15.3719 7.33334 14.15" stroke="white" stroke-opacity="0.4" stroke-width="1.5" stroke-linecap="round" stroke-linejoin="round"/>
</svg>
