<svg width="23" height="22" viewBox="0 0 23 22" fill="none" xmlns="http://www.w3.org/2000/svg">
<path d="M3.4209 8.25024L11.6709 13.7502L19.9209 8.25024L11.6709 2.75024L3.4209 8.25024" stroke="#8692D0" stroke-width="1.5" stroke-linecap="round" stroke-linejoin="round"/>
<path d="M3.4209 8.25024L11.6709 13.7502L19.9209 8.25024L11.6709 2.75024L3.4209 8.25024" stroke="white" stroke-opacity="0.4" stroke-width="1.5" stroke-linecap="round" stroke-linejoin="round"/>
<path d="M19.9209 8.25024V17.4169C19.9209 18.4294 19.1001 19.2502 18.0876 19.2502H5.25423C4.24171 19.2502 3.4209 18.4294 3.4209 17.4169V8.25024" stroke="#8692D0" stroke-width="1.5" stroke-linecap="round" stroke-linejoin="round"/>
<path d="M19.9209 8.25024V17.4169C19.9209 18.4294 19.1001 19.2502 18.0876 19.2502H5.25423C4.24171 19.2502 3.4209 18.4294 3.4209 17.4169V8.25024" stroke="white" stroke-opacity="0.4" stroke-width="1.5" stroke-linecap="round" stroke-linejoin="round"/>
<path d="M3.4209 17.417L8.9209 11.917" stroke="#8692D0" stroke-width="1.5" stroke-linecap="round" stroke-linejoin="round"/>
<path d="M3.4209 17.417L8.9209 11.917" stroke="white" stroke-opacity="0.4" stroke-width="1.5" stroke-linecap="round" stroke-linejoin="round"/>
<path d="M14.4209 11.917L19.9209 17.417" stroke="#8692D0" stroke-width="1.5" stroke-linecap="round" stroke-linejoin="round"/>
<path d="M14.4209 11.917L19.9209 17.417" stroke="white" stroke-opacity="0.4" stroke-width="1.5" stroke-linecap="round" stroke-linejoin="round"/>
</svg>
