<svg width="22" height="23" viewBox="0 0 22 23" fill="none" xmlns="http://www.w3.org/2000/svg">
<rect x="6.41663" y="3.15015" width="12.8333" height="12.8333" rx="2" stroke="#8692D0" stroke-width="1.5" stroke-linecap="round" stroke-linejoin="round"/>
<rect x="6.41663" y="3.15015" width="12.8333" height="12.8333" rx="2" stroke="white" stroke-opacity="0.4" stroke-width="1.5" stroke-linecap="round" stroke-linejoin="round"/>
<path d="M15.5833 15.9836V17.8169C15.5833 18.8294 14.7625 19.6502 13.75 19.6502H4.58333C3.57081 19.6502 2.75 18.8294 2.75 17.8169V8.65023C2.75 7.63771 3.57081 6.81689 4.58333 6.81689H6.41667" stroke="#8692D0" stroke-width="1.5" stroke-linecap="round" stroke-linejoin="round"/>
<path d="M15.5833 15.9836V17.8169C15.5833 18.8294 14.7625 19.6502 13.75 19.6502H4.58333C3.57081 19.6502 2.75 18.8294 2.75 17.8169V8.65023C2.75 7.63771 3.57081 6.81689 4.58333 6.81689H6.41667" stroke="white" stroke-opacity="0.4" stroke-width="1.5" stroke-linecap="round" stroke-linejoin="round"/>
</svg>
