<svg width="27" height="27" viewBox="0 0 27 27" fill="none" xmlns="http://www.w3.org/2000/svg">
<path fill-rule="evenodd" clip-rule="evenodd" d="M13.4408 3.65009C13.5838 3.65009 13.7257 3.65009 13.8665 3.65009C10.9948 6.31851 10.4378 10.6569 12.5424 13.9642C14.647 17.2715 18.8129 18.6045 22.4465 17.1333C20.5694 21.6498 15.6365 24.0767 10.913 22.8074C6.18943 21.5381 3.13729 16.9656 3.77684 12.1165C4.41639 7.26743 8.54969 3.6426 13.4408 3.64142V3.65009Z" stroke="#4B465C" stroke-width="2" stroke-linecap="round" stroke-linejoin="round"/>
<path fill-rule="evenodd" clip-rule="evenodd" d="M13.4408 3.65009C13.5838 3.65009 13.7257 3.65009 13.8665 3.65009C10.9948 6.31851 10.4378 10.6569 12.5424 13.9642C14.647 17.2715 18.8129 18.6045 22.4465 17.1333C20.5694 21.6498 15.6365 24.0767 10.913 22.8074C6.18943 21.5381 3.13729 16.9656 3.77684 12.1165C4.41639 7.26743 8.54969 3.6426 13.4408 3.64142V3.65009Z" stroke="white" stroke-opacity="0.2" stroke-width="2" stroke-linecap="round" stroke-linejoin="round"/>
<path d="M18.8575 4.73349C18.8575 5.93011 19.8275 6.90016 21.0241 6.90016C19.8275 6.90016 18.8575 7.87021 18.8575 9.06682C18.8575 7.87021 17.8874 6.90016 16.6908 6.90016C17.8874 6.90016 18.8575 5.93011 18.8575 4.73349" stroke="#4B465C" stroke-width="2" stroke-linecap="round" stroke-linejoin="round"/>
<path d="M18.8575 4.73349C18.8575 5.93011 19.8275 6.90016 21.0241 6.90016C19.8275 6.90016 18.8575 7.87021 18.8575 9.06682C18.8575 7.87021 17.8874 6.90016 16.6908 6.90016C17.8874 6.90016 18.8575 5.93011 18.8575 4.73349" stroke="white" stroke-opacity="0.2" stroke-width="2" stroke-linecap="round" stroke-linejoin="round"/>
<path d="M21.0242 11.3168C20.4719 11.3168 20.0242 11.7645 20.0242 12.3168C20.0242 12.8691 20.4719 13.3168 21.0242 13.3168V11.3168ZM23.1908 13.3168C23.7431 13.3168 24.1908 12.8691 24.1908 12.3168C24.1908 11.7645 23.7431 11.3168 23.1908 11.3168V13.3168ZM23.1075 11.2335C23.1075 10.6812 22.6598 10.2335 22.1075 10.2335C21.5552 10.2335 21.1075 10.6812 21.1075 11.2335H23.1075ZM21.1075 13.4002C21.1075 13.9524 21.5552 14.4002 22.1075 14.4002C22.6598 14.4002 23.1075 13.9524 23.1075 13.4002H21.1075ZM21.0242 13.3168H23.1908V11.3168H21.0242V13.3168ZM21.1075 11.2335V13.4002H23.1075V11.2335H21.1075Z" fill="#4B465C"/>
<path d="M21.0242 11.3168C20.4719 11.3168 20.0242 11.7645 20.0242 12.3168C20.0242 12.8691 20.4719 13.3168 21.0242 13.3168V11.3168ZM23.1908 13.3168C23.7431 13.3168 24.1908 12.8691 24.1908 12.3168C24.1908 11.7645 23.7431 11.3168 23.1908 11.3168V13.3168ZM23.1075 11.2335C23.1075 10.6812 22.6598 10.2335 22.1075 10.2335C21.5552 10.2335 21.1075 10.6812 21.1075 11.2335H23.1075ZM21.1075 13.4002C21.1075 13.9524 21.5552 14.4002 22.1075 14.4002C22.6598 14.4002 23.1075 13.9524 23.1075 13.4002H21.1075ZM21.0242 13.3168H23.1908V11.3168H21.0242V13.3168ZM21.1075 11.2335V13.4002H23.1075V11.2335H21.1075Z" fill="white" fill-opacity="0.2"/>
</svg>
