<svg width="33" height="38" viewBox="0 0 33 38" fill="none" xmlns="http://www.w3.org/2000/svg">
<path d="M11.2742 11.8168C11.2742 10.6202 12.2442 9.65015 13.4408 9.65015C14.6375 9.65015 15.6075 10.6202 15.6075 11.8168C18.1427 13.0156 19.8094 15.5156 19.9408 18.3168V21.5668C20.1062 22.9327 20.9103 24.1389 22.1075 24.8168H4.77417C5.97138 24.1389 6.7755 22.9327 6.94084 21.5668V18.3168C7.07232 15.5156 8.73899 13.0156 11.2742 11.8168" stroke="#4B465C" stroke-width="2" stroke-linecap="round" stroke-linejoin="round"/>
<path d="M11.2742 11.8168C11.2742 10.6202 12.2442 9.65015 13.4408 9.65015C14.6375 9.65015 15.6075 10.6202 15.6075 11.8168C18.1427 13.0156 19.8094 15.5156 19.9408 18.3168V21.5668C20.1062 22.9327 20.9103 24.1389 22.1075 24.8168H4.77417C5.97138 24.1389 6.7755 22.9327 6.94084 21.5668V18.3168C7.07232 15.5156 8.73899 13.0156 11.2742 11.8168" stroke="white" stroke-opacity="0.2" stroke-width="2" stroke-linecap="round" stroke-linejoin="round"/>
<path d="M10.1908 24.8168V25.9001C10.1908 27.6951 11.6459 29.1501 13.4408 29.1501C15.2357 29.1501 16.6908 27.6951 16.6908 25.9001V24.8168" stroke="#4B465C" stroke-width="2" stroke-linecap="round" stroke-linejoin="round"/>
<path d="M10.1908 24.8168V25.9001C10.1908 27.6951 11.6459 29.1501 13.4408 29.1501C15.2357 29.1501 16.6908 27.6951 16.6908 25.9001V24.8168" stroke="white" stroke-opacity="0.2" stroke-width="2" stroke-linecap="round" stroke-linejoin="round"/>
<circle cx="23.6707" cy="11.6618" r="9" fill="#EA5455"/>
<path d="M23.7548 7.00115H25.1524V12.8836H26.6799V14.0861H25.1524V16.4001H23.8003V14.0861H19.3998V12.8641L23.7548 7.00115ZM20.7128 12.8836H23.7808V8.76915L20.7128 12.8836Z" fill="white"/>
</svg>
