<svg width="18" height="14" viewBox="0 0 18 14" fill="none" xmlns="http://www.w3.org/2000/svg">
<path d="M2.58333 13.3333C2.99755 13.3333 3.33333 12.9975 3.33333 12.5833C3.33333 12.1691 2.99755 11.8333 2.58333 11.8333V13.3333ZM0.75 12.5833H0C0 12.9975 0.335786 13.3333 0.75 13.3333L0.75 12.5833ZM9.91667 1.58331H10.6667C10.6667 1.1691 10.3309 0.833313 9.91667 0.833313V1.58331ZM9.16667 12.5833C9.16667 12.9975 9.50245 13.3333 9.91667 13.3333C10.3309 13.3333 10.6667 12.9975 10.6667 12.5833H9.16667ZM6.25 11.8333C5.83579 11.8333 5.5 12.1691 5.5 12.5833C5.5 12.9975 5.83579 13.3333 6.25 13.3333V11.8333ZM11.75 13.3333C12.1642 13.3333 12.5 12.9975 12.5 12.5833C12.5 12.1691 12.1642 11.8333 11.75 11.8333V13.3333ZM15.4167 11.8333C15.0025 11.8333 14.6667 12.1691 14.6667 12.5833C14.6667 12.9975 15.0025 13.3333 15.4167 13.3333V11.8333ZM17.25 12.5833V13.3333C17.6642 13.3333 18 12.9975 18 12.5833H17.25ZM17.25 7.08331H18C18 6.6691 17.6642 6.33331 17.25 6.33331V7.08331ZM9.91667 6.33331C9.50245 6.33331 9.16667 6.6691 9.16667 7.08331C9.16667 7.49753 9.50245 7.83331 9.91667 7.83331V6.33331ZM9.91667 1.74998C9.50245 1.74998 9.16667 2.08577 9.16667 2.49998C9.16667 2.91419 9.50245 3.24998 9.91667 3.24998V1.74998ZM14.5 2.49998L15.1431 2.11411C15.0076 1.8882 14.7634 1.74998 14.5 1.74998V2.49998ZM16.6069 7.46918C16.82 7.82437 17.2807 7.93954 17.6359 7.72643C17.9911 7.51332 18.1062 7.05263 17.8931 6.69744L16.6069 7.46918ZM2.58333 11.8333H0.75V13.3333H2.58333V11.8333ZM1.5 12.5833V2.49998H0V12.5833H1.5ZM1.5 2.49998C1.5 2.40793 1.57462 2.33331 1.66667 2.33331V0.833313C0.746192 0.833313 0 1.57951 0 2.49998H1.5ZM1.66667 2.33331H9.91667V0.833313H1.66667V2.33331ZM9.16667 1.58331V12.5833H10.6667V1.58331H9.16667ZM6.25 13.3333H11.75V11.8333H6.25V13.3333ZM15.4167 13.3333H17.25V11.8333H15.4167V13.3333ZM18 12.5833V7.08331H16.5V12.5833H18ZM17.25 6.33331H9.91667V7.83331H17.25V6.33331ZM9.91667 3.24998H14.5V1.74998H9.91667V3.24998ZM13.8569 2.88585L16.6069 7.46918L17.8931 6.69744L15.1431 2.11411L13.8569 2.88585Z" fill="#4B465C"/>
<path d="M2.58333 13.3333C2.99755 13.3333 3.33333 12.9975 3.33333 12.5833C3.33333 12.1691 2.99755 11.8333 2.58333 11.8333V13.3333ZM0.75 12.5833H0C0 12.9975 0.335786 13.3333 0.75 13.3333L0.75 12.5833ZM9.91667 1.58331H10.6667C10.6667 1.1691 10.3309 0.833313 9.91667 0.833313V1.58331ZM9.16667 12.5833C9.16667 12.9975 9.50245 13.3333 9.91667 13.3333C10.3309 13.3333 10.6667 12.9975 10.6667 12.5833H9.16667ZM6.25 11.8333C5.83579 11.8333 5.5 12.1691 5.5 12.5833C5.5 12.9975 5.83579 13.3333 6.25 13.3333V11.8333ZM11.75 13.3333C12.1642 13.3333 12.5 12.9975 12.5 12.5833C12.5 12.1691 12.1642 11.8333 11.75 11.8333V13.3333ZM15.4167 11.8333C15.0025 11.8333 14.6667 12.1691 14.6667 12.5833C14.6667 12.9975 15.0025 13.3333 15.4167 13.3333V11.8333ZM17.25 12.5833V13.3333C17.6642 13.3333 18 12.9975 18 12.5833H17.25ZM17.25 7.08331H18C18 6.6691 17.6642 6.33331 17.25 6.33331V7.08331ZM9.91667 6.33331C9.50245 6.33331 9.16667 6.6691 9.16667 7.08331C9.16667 7.49753 9.50245 7.83331 9.91667 7.83331V6.33331ZM9.91667 1.74998C9.50245 1.74998 9.16667 2.08577 9.16667 2.49998C9.16667 2.91419 9.50245 3.24998 9.91667 3.24998V1.74998ZM14.5 2.49998L15.1431 2.11411C15.0076 1.8882 14.7634 1.74998 14.5 1.74998V2.49998ZM16.6069 7.46918C16.82 7.82437 17.2807 7.93954 17.6359 7.72643C17.9911 7.51332 18.1062 7.05263 17.8931 6.69744L16.6069 7.46918ZM2.58333 11.8333H0.75V13.3333H2.58333V11.8333ZM1.5 12.5833V2.49998H0V12.5833H1.5ZM1.5 2.49998C1.5 2.40793 1.57462 2.33331 1.66667 2.33331V0.833313C0.746192 0.833313 0 1.57951 0 2.49998H1.5ZM1.66667 2.33331H9.91667V0.833313H1.66667V2.33331ZM9.16667 1.58331V12.5833H10.6667V1.58331H9.16667ZM6.25 13.3333H11.75V11.8333H6.25V13.3333ZM15.4167 13.3333H17.25V11.8333H15.4167V13.3333ZM18 12.5833V7.08331H16.5V12.5833H18ZM17.25 6.33331H9.91667V7.83331H17.25V6.33331ZM9.91667 3.24998H14.5V1.74998H9.91667V3.24998ZM13.8569 2.88585L16.6069 7.46918L17.8931 6.69744L15.1431 2.11411L13.8569 2.88585Z" fill="white" fill-opacity="0.2"/>
</svg>
