<svg width="39" height="39" viewBox="0 0 39 39" fill="none" xmlns="http://www.w3.org/2000/svg">
<g clip-path="url(#clip0_3668_42126)">
<rect x="0.510742" y="0.427795" width="38" height="38" fill="#A8AAAE" fill-opacity="0.16"/>
<path d="M14.3561 12.9754C15.2921 12.9754 16.1231 13.1674 16.8491 13.5514C17.5751 13.9354 18.1571 14.4514 18.5951 15.0994C19.0391 15.7474 19.3031 16.4644 19.3871 17.2504H17.3351C17.2451 16.7584 17.0711 16.3144 16.8131 15.9184C16.5611 15.5164 16.2251 15.2014 15.8051 14.9734C15.3851 14.7394 14.8871 14.6224 14.3111 14.6224C13.5731 14.6224 12.9461 14.7964 12.4301 15.1444C11.9141 15.4924 11.5211 16.0354 11.2511 16.7734C10.9871 17.5114 10.8551 18.4624 10.8551 19.6264C10.8551 21.3844 11.1521 22.6714 11.7461 23.4874C12.3401 24.2974 13.1951 24.7024 14.3111 24.7024C14.8871 24.7024 15.3851 24.5794 15.8051 24.3334C16.2251 24.0814 16.5611 23.7484 16.8131 23.3344C17.0711 22.9144 17.2451 22.4584 17.3351 21.9664H19.3871C19.3151 22.5364 19.1651 23.0854 18.9371 23.6134C18.7091 24.1354 18.3911 24.6034 17.9831 25.0174C17.5811 25.4314 17.0801 25.7584 16.4801 25.9984C15.8801 26.2324 15.1721 26.3494 14.3561 26.3494C13.1801 26.3494 12.1721 26.0794 11.3321 25.5394C10.4921 24.9934 9.84713 24.2194 9.39713 23.2174C8.95313 22.2094 8.73113 21.0034 8.73113 19.5994C8.73113 18.2014 8.95313 17.0104 9.39713 16.0264C9.84113 15.0364 10.4831 14.2804 11.3231 13.7584C12.1631 13.2364 13.1741 12.9754 14.3561 12.9754ZM21.9663 13.1554H30.2823L30.2733 14.8114H23.9283V18.8344H29.5713V20.4724H23.9283V26.1694H21.9663V13.1554Z" fill="#A8AAAE"/>
</g>
<defs>
<clipPath id="clip0_3668_42126">
<rect x="0.670898" y="0.400146" width="38" height="38" rx="19" fill="white"/>
</clipPath>
</defs>
</svg>
